<?xml version="1.0" encoding="utf-8"?>
<!-- Generator: Adobe Illustrator 26.2.1, SVG Export Plug-In . SVG Version: 6.00 Build 0)  -->
<svg version="1.1" id="Layer_1" xmlns="http://www.w3.org/2000/svg" xmlns:xlink="http://www.w3.org/1999/xlink" x="0px" y="0px"
	 viewBox="0 0 32 32" style="enable-background:new 0 0 32 32;" xml:space="preserve">
<style type="text/css">
	.st0{fill:#FBE515;}
	.st1{fill:#FFFFFF;}
	.st2{fill:url(#SVGID_1_);}
</style>
<g>
	<g>
		<circle class="st0" cx="16" cy="16" r="15.8"/>
		<g>
			<g>
				<path class="st1" d="M6.4,12.4l4.7,4.7l4.9-4.7h3.8l-6.7,6.3c-0.3,0.2-0.5,0.4-0.8,0.5c-0.4,0.2-0.8,0.3-1.3,0.2
					c-0.4,0-0.8-0.1-1.2-0.2C9.5,19.2,9.2,19,9,18.8l-6.6-6.4H6.4z"/>
			</g>
			<g>
				
					<linearGradient id="SVGID_1_" gradientUnits="userSpaceOnUse" x1="1380.2058" y1="-6570.4771" x2="1380.2058" y2="-6558.2007" gradientTransform="matrix(0.5 0 0 0.5 -673.55 3299.6001)">
					<stop  offset="0" style="stop-color:#000000"/>
					<stop  offset="0.37" style="stop-color:#6A6A6A"/>
					<stop  offset="0.68" style="stop-color:#BABABA"/>
					<stop  offset="0.89" style="stop-color:#ECECEC"/>
					<stop  offset="1" style="stop-color:#FFFFFF"/>
				</linearGradient>
				<path class="st2" d="M14.3,15.1l0.8,0.7c0.2,0.2,0.4,0.4,0.6,0.5c0.2,0.2,0.3,0.3,0.5,0.4l0.4,0.4c0.1-0.1,0.2-0.2,0.4-0.4
					s0.3-0.3,0.5-0.4c0.2-0.2,0.4-0.3,0.6-0.5l0.8-0.7l2.3-2c0.3-0.2,0.6-0.4,1-0.5c0.5-0.1,1-0.2,1.5-0.2c0.5,0,1,0.1,1.5,0.2
					c0.4,0.2,0.8,0.4,1,0.7l3.6,6.1h-4.4L23.9,17c-0.2-0.4-0.4-0.7-0.6-1c-0.1-0.3-0.3-0.6-0.4-0.9c-0.2,0.2-0.5,0.5-0.8,0.8
					c-0.3,0.3-0.7,0.7-1.2,1.1l-1.9,1.7c-0.2,0.2-0.4,0.3-0.6,0.4c-0.2,0.1-0.4,0.2-0.6,0.2c-0.2,0.1-0.4,0.1-0.6,0.1
					c-0.2,0-0.5,0-0.7,0c-0.3,0-0.5,0-0.7,0c-0.2,0-0.4-0.1-0.6-0.1c-0.2-0.1-0.4-0.1-0.6-0.2c-0.2-0.1-0.4-0.2-0.6-0.4L12.1,17
					c-0.3-0.2-0.5-0.4-0.7-0.6c-0.2-0.2-0.4-0.4-0.5-0.5c-0.2-0.1-0.3-0.3-0.4-0.4l-0.4-0.4C10,15.4,9.8,15.7,9.7,16
					c-0.2,0.3-0.3,0.6-0.6,1l-1.3,2.4H3.5l3.7-6.1c0.2-0.3,0.5-0.6,1-0.7c0.5-0.2,1-0.2,1.5-0.2c0.5,0,1,0.1,1.4,0.2
					c0.4,0.1,0.7,0.3,1,0.5L14.3,15.1z"/>
				<g>
					<path d="M14.3,15.1l0.8,0.7c0.2,0.2,0.4,0.4,0.6,0.5s0.3,0.3,0.5,0.4l0.4,0.4c0.1-0.1,0.2-0.2,0.4-0.4c0.1-0.1,0.3-0.3,0.5-0.4
						c0.2-0.2,0.4-0.3,0.6-0.5l0.8-0.7l2.3-2c0.3-0.2,0.6-0.4,1-0.5c1-0.3,2-0.3,3,0c0.4,0.1,0.7,0.4,1,0.7l3.6,6.1h-4.4L23.9,17
						c-0.2-0.4-0.4-0.7-0.6-1c-0.1-0.3-0.3-0.6-0.4-0.9c-0.2,0.2-0.5,0.5-0.8,0.8c-0.3,0.3-0.7,0.7-1.2,1.1l-1.9,1.7
						c-0.2,0.2-0.4,0.3-0.6,0.4c-0.2,0.1-0.4,0.2-0.6,0.2c-0.2,0.1-0.4,0.1-0.6,0.1c-0.2,0-0.5,0-0.7,0c-0.3,0-0.5,0-0.7,0
						c-0.2,0-0.4-0.1-0.6-0.1c-0.2-0.1-0.4-0.1-0.6-0.2c-0.2-0.1-0.4-0.2-0.6-0.4L12.1,17c-0.3-0.2-0.5-0.4-0.7-0.6
						c-0.2-0.2-0.4-0.4-0.5-0.5c-0.2-0.1-0.3-0.3-0.4-0.4l-0.4-0.4C10,15.4,9.8,15.7,9.7,16c-0.2,0.3-0.3,0.6-0.6,1l-1.3,2.4H3.5
						l3.7-6.1c0.2-0.3,0.5-0.6,1-0.7c0.5-0.2,1-0.2,1.5-0.2c0.5,0,1,0.1,1.4,0.2c0.4,0.1,0.7,0.3,1,0.5L14.3,15.1z"/>
				</g>
			</g>
			<path class="st1" d="M16,12.4l-4.9,4.6v2.5c0.4,0,0.8-0.1,1.2-0.2c0.3-0.1,0.6-0.3,0.9-0.5l6.7-6.3H16z"/>
		</g>
	</g>
</g>
</svg>
