<svg xmlns="http://www.w3.org/2000/svg" xmlns:xlink="http://www.w3.org/1999/xlink" id="Laag_1" x="0px" y="0px" viewBox="0 0 273.7 136.3" style="enable-background:new 0 0 273.7 136.3;" xml:space="preserve"><style type="text/css">	.st0{fill:#FBE515;}	.st1{fill:#FFFFFF;}	.st2{fill:url(#SVGID_1_);}</style><rect class="st0" width="273.7" height="136.3"></rect><g>	<g>		<g>			<path class="st1" d="M50.4,24.5l42.4,41.7l44.3-41.7h34.4l-60.3,56.9c-2.3,2-4.9,3.6-7.6,4.9c-3.6,1.6-7.4,2.3-11.3,2.2    c-3.8,0.1-7.6-0.6-11.1-2c-2.8-1.2-5.3-2.9-7.6-5L14.6,24.5H50.4z"></path>		</g>		<g>							<linearGradient id="SVGID_1_" gradientUnits="userSpaceOnUse" x1="1215.6057" y1="-6046.5884" x2="1215.6057" y2="-5936.5684" gradientTransform="matrix(0.5 0 0 0.5 -465.9968 3065.072)">				<stop offset="0" style="stop-color:#000000"></stop>				<stop offset="0.37" style="stop-color:#6A6A6A"></stop>				<stop offset="0.68" style="stop-color:#BABABA"></stop>				<stop offset="0.89" style="stop-color:#ECECEC"></stop>				<stop offset="1" style="stop-color:#FFFFFF"></stop>			</linearGradient>			<path class="st2" d="M121.7,48.6l7.3,6.3c2.1,1.8,3.9,3.4,5.5,4.8c1.6,1.4,3,2.7,4.2,3.9l3.5,3.4c1-1.1,2.1-2.2,3.3-3.4    c1.2-1.2,2.6-2.4,4.2-3.9s3.4-3.1,5.5-4.9l7.3-6.3l20.5-17.6c2.6-2.1,5.5-3.7,8.7-4.8c4.2-1.3,8.6-1.9,13.1-1.8    c4.6-0.1,9.1,0.6,13.4,2.1c4,1.4,6.9,3.5,8.7,6.4l32.2,54.4h-39.2l-12-21.5c-2-3.5-3.7-6.6-5.1-9.3c-1.3-2.5-2.5-5.1-3.6-7.8    c-2.2,2.2-4.6,4.6-7.2,7.2c-2.7,2.6-6.2,5.9-10.5,9.9l-17.1,15.6c-1.5,1.4-3.2,2.7-5.1,3.7c-1.7,0.9-3.4,1.6-5.2,2.1    c-1.9,0.5-3.8,0.9-5.7,1c-2,0.2-4.3,0.2-6.7,0.2c-2.4,0-4.6-0.1-6.7-0.2c-1.9-0.1-3.8-0.5-5.7-1c-1.8-0.5-3.6-1.2-5.2-2.1    c-1.8-1-3.5-2.2-5.1-3.7l-17.2-15.7c-2.3-2.1-4.3-4-6.1-5.6s-3.4-3.2-4.9-4.5c-1.5-1.3-2.7-2.5-3.8-3.6l-3.1-3.2    c-1,2.5-2.2,5-3.6,7.7c-1.4,2.7-3.1,5.8-5,9.3l-12,21.6H24.5l33-54.4c1.8-2.9,4.7-5,8.8-6.4c4.4-1.4,8.9-2.1,13.5-2.1    c4.4-0.1,8.7,0.5,12.9,1.8c3.2,1,6.1,2.6,8.7,4.8L121.7,48.6z"></path>			<g>				<path d="M121.7,48.5l7.3,6.3c2.1,1.8,3.9,3.4,5.5,4.9s3,2.7,4.2,3.9l3.5,3.4c1-1.1,2.1-2.2,3.3-3.4s2.6-2.4,4.2-3.9     s3.4-3.1,5.5-4.8l7.3-6.3l20.4-17.6c2.6-2.1,5.5-3.7,8.7-4.8c8.7-2.5,17.9-2.4,26.5,0.3c3.6,1.1,6.6,3.3,8.7,6.4l32.2,54.4     h-39.3l-12-21.6c-2-3.5-3.7-6.6-5.1-9.2c-1.3-2.5-2.6-5.1-3.6-7.8c-2.2,2.2-4.6,4.5-7.2,7.2c-2.7,2.6-6.2,6-10.5,10l-17.2,15.5     c-1.5,1.4-3.2,2.7-5,3.7c-1.7,0.9-3.4,1.6-5.2,2.1c-1.9,0.5-3.8,0.9-5.7,1c-2,0.2-4.3,0.2-6.7,0.2s-4.6-0.1-6.7-0.2     c-1.9-0.1-3.9-0.5-5.7-1c-1.8-0.5-3.6-1.2-5.2-2.1c-1.8-1-3.5-2.2-5-3.7l-17.2-15.7c-2.3-2.1-4.3-4-6.1-5.6s-3.4-3.2-4.9-4.5     c-1.5-1.3-2.7-2.6-3.8-3.7l-3.1-3.2c-1,2.5-2.2,5-3.6,7.7s-3,5.8-5,9.3l-12,21.6H24.5l33-54.4c1.8-2.9,4.7-5,8.8-6.4     c4.4-1.4,8.9-2.1,13.5-2.1c4.4-0.1,8.7,0.5,12.9,1.8c3.2,1,6.1,2.6,8.7,4.8L121.7,48.5z"></path>			</g>		</g>		<path class="st1" d="M137.1,24.5L93.1,66v22.4c3.6,0,7.2-0.7,10.5-2.2c2.8-1.3,5.3-2.9,7.6-4.9l60.4-56.9H137.1z"></path>	</g>	<g>		<g>			<path d="M46.5,101.8l4.4,6.5l4.7-6.5h3.6l-6.3,8.9c-0.2,0.3-0.5,0.5-0.8,0.8c-0.3,0.2-0.8,0.4-1.2,0.3c-0.4,0-0.8-0.1-1.2-0.3    c-0.3-0.2-0.6-0.5-0.8-0.8l-6.2-8.9H46.5z"></path>			<path d="M72,109.2l-2,2.5h-9.5v-9.9H72l-2,2.6h-6.4v1.2h7.8l-1.8,2.2h-6.1v1.3L72,109.2z"></path>			<path d="M83.3,111.9c-0.2,0-0.4,0-0.6-0.1c-0.2-0.1-0.5-0.3-0.6-0.4l-6-5.4v5.8h-2.8v-8.2c0-0.3,0-0.6,0.1-0.8    c0.1-0.2,0.2-0.4,0.4-0.6c0.1-0.1,0.3-0.3,0.5-0.3c0.2-0.1,0.4-0.1,0.6-0.1c0.2,0,0.4,0,0.6,0.1c0.2,0.1,0.5,0.3,0.7,0.4l6,5.4    v-5.8H85v8.2c0,0.3,0,0.6-0.2,0.8c-0.1,0.2-0.2,0.4-0.4,0.6c-0.2,0.1-0.3,0.3-0.5,0.3C83.7,111.8,83.5,111.9,83.3,111.9z"></path>			<path d="M99.6,106.7c0,0.7-0.1,1.4-0.4,2c-0.3,0.6-0.7,1.2-1.2,1.6c-0.6,0.5-1.2,0.8-1.9,1.1c-0.8,0.3-1.6,0.4-2.4,0.4h-6.6v-6.1    h3.1v3.6h3.5c0.4,0,0.8,0,1.2-0.2c0.3-0.1,0.6-0.3,0.9-0.5c0.3-0.2,0.5-0.5,0.6-0.8c0.3-0.6,0.3-1.3,0-1.9    c-0.2-0.3-0.4-0.6-0.6-0.8c-0.3-0.2-0.6-0.4-0.9-0.5c-0.4-0.1-0.8-0.2-1.2-0.2h-6.6l1.9-2.6h4.7c0.8,0,1.6,0.1,2.4,0.3    c0.7,0.2,1.3,0.6,1.9,1c0.5,0.4,0.9,0.9,1.2,1.5C99.5,105.3,99.6,106,99.6,106.7z"></path>			<path d="M104.6,111.7h-3v-9.9h3V111.7z"></path>			<path d="M119.5,105.5l0.6,1c0.2,0.3,0.3,0.6,0.4,0.8l0.3,0.6l0.3,0.6c0.1-0.2,0.2-0.4,0.3-0.5l0.3-0.6c0.1-0.2,0.3-0.5,0.4-0.8    s0.3-0.6,0.6-1l1.6-2.8c0.2-0.3,0.4-0.6,0.7-0.8c0.3-0.2,0.6-0.3,1-0.3c0.4,0,0.7,0.1,1,0.3c0.3,0.2,0.6,0.6,0.7,1l2.5,8.7h-3    l-0.9-3.4c-0.2-0.6-0.3-1.1-0.4-1.5s-0.2-0.8-0.3-1.2c-0.2,0.3-0.4,0.7-0.6,1.1l-0.8,1.6l-1.3,2.5c-0.1,0.2-0.2,0.4-0.4,0.6    c-0.1,0.1-0.3,0.2-0.4,0.3c-0.1,0.1-0.3,0.1-0.4,0.2c-0.2,0-0.3,0-0.5,0c-0.2,0-0.3,0-0.5,0c-0.2,0-0.3-0.1-0.4-0.2    c-0.1-0.1-0.3-0.2-0.4-0.3c-0.2-0.2-0.3-0.4-0.4-0.6l-1.3-2.5c-0.2-0.3-0.3-0.6-0.5-0.9l-0.4-0.7c-0.1-0.2-0.2-0.4-0.3-0.6    l-0.2-0.5c-0.1,0.4-0.2,0.8-0.3,1.2s-0.2,0.9-0.4,1.5l-0.9,3.4h-3l2.6-8.7c0.1-0.4,0.3-0.8,0.7-1c0.3-0.2,0.6-0.3,1-0.3    c0.4,0,0.7,0.1,1,0.3c0.3,0.2,0.5,0.5,0.7,0.8L119.5,105.5z"></path>		</g>		<g>			<path d="M135.8,111.7l1.8-2.5h3.4c0.3,0,0.6,0,0.8,0c-0.1-0.2-0.3-0.4-0.5-0.7l-0.5-0.8l-1.8-2.6l-4.6,6.5h-3.6l6.3-8.9    c0.2-0.3,0.5-0.5,0.8-0.8c0.4-0.2,0.8-0.4,1.2-0.3c0.4,0,0.8,0.1,1.2,0.3c0.3,0.2,0.6,0.5,0.8,0.8l6.2,8.9L135.8,111.7z"></path>		</g>		<g>			<path d="M159.7,109.2l-2,2.5h-5c-0.8,0-1.6-0.1-2.4-0.4c-0.7-0.2-1.3-0.6-1.9-1.1c-0.5-0.4-0.9-1-1.2-1.6c-0.3-0.6-0.5-1.3-0.4-2    c0-0.7,0.1-1.4,0.4-2c0.3-0.6,0.7-1.1,1.2-1.5c0.6-0.5,1.2-0.8,1.9-1c0.8-0.2,1.6-0.4,2.4-0.3h6.9l-2,2.6h-5    c-0.4,0-0.8,0.1-1.1,0.2c-0.3,0.1-0.6,0.3-0.9,0.5c-0.3,0.2-0.5,0.5-0.6,0.8c-0.2,0.3-0.2,0.7-0.2,1c0,0.7,0.3,1.3,0.8,1.7    c0.3,0.2,0.6,0.4,0.9,0.5c0.4,0.1,0.8,0.2,1.1,0.2L159.7,109.2z"></path>			<path d="M173,111.7h-3v-3.8h-5.9v3.8h-3.1v-9.9h3.1v3.5h5.9v-3.5h3V111.7z"></path>			<path d="M178.3,111.7h-3.1v-9.9h3.1V111.7z"></path>			<path d="M190.5,111.9c-0.5,0-0.9-0.2-1.2-0.5l-6-5.4v5.8h-2.8v-8.2c0-0.3,0-0.6,0.1-0.8c0.1-0.2,0.2-0.4,0.4-0.6    c0.1-0.1,0.3-0.3,0.5-0.3c0.4-0.1,0.8-0.1,1.2,0c0.2,0.1,0.5,0.3,0.7,0.4l6,5.4v-5.8h2.8v8.2c0,0.3,0,0.6-0.1,0.8    c-0.1,0.2-0.2,0.5-0.4,0.6c-0.1,0.1-0.3,0.3-0.5,0.3C190.9,111.9,190.7,111.9,190.5,111.9z"></path>			<path d="M205.7,109.2l-2,2.5h-9.5v-9.9h11.4l-2,2.6h-6.4v1.2h7.8l-1.8,2.2h-6.1v1.3L205.7,109.2z"></path>		</g>		<g>			<path d="M221.1,111.7H217l-2.2-2.6h-4.7v2.6h-3.1v-5h8.6c0.4,0,0.8-0.1,1.2-0.3c0.3-0.2,0.5-0.5,0.5-0.8c0-0.3-0.2-0.7-0.4-0.9    c-0.4-0.2-0.8-0.3-1.2-0.3h-8.6l2-2.6h6.3c0.6,0,1.2,0.1,1.7,0.2c0.6,0.1,1.1,0.3,1.6,0.6c0.5,0.3,0.9,0.6,1.2,1.1    c0.3,0.5,0.5,1.1,0.5,1.7c0,0.4-0.1,0.7-0.2,1.1c-0.1,0.3-0.3,0.7-0.5,0.9c-0.2,0.3-0.5,0.5-0.8,0.7c-0.3,0.2-0.7,0.3-1.1,0.4    c0.2,0.1,0.4,0.3,0.6,0.5l0.8,0.8L221.1,111.7z"></path>		</g>		<g>			<path d="M235.3,101.8l-5.8,6.6v3.3h-3.1v-3.3l-6-6.6h3.9l2.3,2.7c0.1,0.1,0.2,0.2,0.3,0.3s0.3,0.3,0.4,0.4l0.4,0.4l0.2,0.3    l0.4-0.6l0.8-1l2.2-2.7L235.3,101.8z"></path>		</g>	</g></g></svg>