<svg xmlns="http://www.w3.org/2000/svg" xmlns:xlink="http://www.w3.org/1999/xlink" id="Laag_1" x="0px" y="0px" viewBox="0 0 244.5 87.4" style="enable-background:new 0 0 244.5 87.4;" xml:space="preserve"><style type="text/css">	.st0{fill:#FFFFFF;}	.st1{fill:url(#SVGID_1_);}</style><g>	<g>		<g>			<path class="st0" d="M35.8,0l42.4,41.7L122.5,0h34.4L96.6,56.9c-2.3,2-4.9,3.6-7.6,4.9c-3.6,1.6-7.4,2.3-11.3,2.2    c-3.8,0.1-7.6-0.6-11.1-2c-2.8-1.2-5.3-2.9-7.5-5L0,0H35.8z"></path>		</g>		<g>							<linearGradient id="SVGID_1_" gradientUnits="userSpaceOnUse" x1="1196.51" y1="-6073.7202" x2="1196.51" y2="-5963.7002" gradientTransform="matrix(0.5 0 0 0.5 -471.05 3054.1553)">				<stop offset="0" style="stop-color:#000000"></stop>				<stop offset="0.37" style="stop-color:#6A6A6A"></stop>				<stop offset="0.68" style="stop-color:#BABABA"></stop>				<stop offset="0.89" style="stop-color:#ECECEC"></stop>				<stop offset="1" style="stop-color:#FFFFFF"></stop>			</linearGradient>			<path class="st1" d="M107.1,24.1l7.3,6.3c2.1,1.8,3.9,3.4,5.5,4.8s3,2.7,4.2,3.9l3.5,3.4c1-1.1,2.1-2.2,3.3-3.4s2.6-2.4,4.2-3.9    s3.4-3.1,5.5-4.9l7.3-6.3l20.5-17.6c2.6-2.1,5.5-3.7,8.7-4.8c4.2-1.3,8.6-1.9,13.1-1.8c4.6-0.1,9.1,0.6,13.4,2.1    c4,1.4,6.9,3.5,8.7,6.4l32.2,54.4h-39.2l-12-21.5c-2-3.5-3.7-6.6-5.1-9.2c-1.3-2.5-2.5-5.1-3.6-7.8c-2.2,2.2-4.6,4.6-7.2,7.2    c-2.7,2.6-6.2,5.9-10.5,9.9L149.6,57c-1.5,1.4-3.2,2.7-5.1,3.7c-1.7,0.9-3.4,1.6-5.2,2.1c-1.9,0.5-3.8,0.9-5.7,1    c-2,0.2-4.3,0.2-6.7,0.2c-2.4,0-4.6-0.1-6.7-0.2c-1.9-0.1-3.8-0.5-5.7-1c-1.8-0.5-3.6-1.2-5.2-2.1c-1.8-1-3.5-2.2-5.1-3.7    L87.1,41.3c-2.3-2.1-4.3-4-6.1-5.6s-3.4-3.2-4.9-4.5c-1.5-1.3-2.7-2.6-3.8-3.6l-3.1-3.2c-1,2.5-2.2,5-3.6,7.7    c-1.4,2.7-3.1,5.8-5,9.3l-12,21.6H9.9l33-54.4c1.8-2.9,4.7-5,8.8-6.4C56,0.7,60.6,0,65.2,0c4.4-0.1,8.7,0.5,12.9,1.8    c3.2,1,6.1,2.6,8.7,4.8L107.1,24.1z"></path>			<g>				<path d="M107.1,24.1l7.3,6.3c2.1,1.8,3.9,3.4,5.5,4.9c1.6,1.4,3,2.7,4.2,3.9l3.5,3.4c1-1.1,2.1-2.2,3.3-3.4s2.6-2.4,4.2-3.9     s3.4-3.1,5.5-4.9l7.3-6.3l20.4-17.6c2.6-2.1,5.5-3.7,8.7-4.8c8.7-2.5,17.9-2.4,26.5,0.3c3.6,1.1,6.6,3.3,8.7,6.4l32.2,54.4     h-39.2l-12-21.6c-2-3.5-3.7-6.6-5.1-9.2c-1.3-2.5-2.6-5.1-3.6-7.8c-2.2,2.2-4.6,4.5-7.2,7.2s-6.2,6-10.5,10L149.6,57     c-1.5,1.4-3.2,2.7-5,3.7c-1.7,0.9-3.4,1.6-5.2,2.1c-1.9,0.5-3.8,0.9-5.7,1c-2,0.2-4.3,0.2-6.7,0.2c-2.4,0-4.6-0.1-6.7-0.2     c-1.9-0.1-3.9-0.5-5.7-1c-1.8-0.5-3.6-1.2-5.2-2.1c-1.8-1-3.5-2.2-5-3.7L87.1,41.3c-2.3-2.1-4.3-4-6.1-5.6s-3.4-3.2-4.9-4.5     c-1.5-1.3-2.7-2.6-3.8-3.6l-3.1-3.2c-1,2.5-2.2,5-3.6,7.7s-3,5.8-5,9.3l-12,21.6H9.9l33-54.4c1.8-2.9,4.7-5,8.8-6.4     C56,0.7,60.6-0.1,65.2,0c4.4-0.1,8.7,0.5,12.9,1.8c3.2,1,6.1,2.6,8.7,4.8L107.1,24.1z"></path>			</g>		</g>		<path class="st0" d="M122.5,0L78.5,41.5v22.4c3.6,0,7.2-0.7,10.5-2.2c2.8-1.3,5.3-2.9,7.6-4.9L157,0H122.5z"></path>	</g>	<g>		<g>			<path class="st0" d="M31.9,77.4l4.4,6.5l4.7-6.5h3.6l-6.3,8.9c-0.2,0.3-0.5,0.5-0.8,0.8c-0.3,0.2-0.8,0.4-1.2,0.3    c-0.4,0-0.8-0.1-1.2-0.3c-0.3-0.2-0.6-0.5-0.8-0.8l-6.2-8.9H31.9z"></path>			<path class="st0" d="M57.4,84.7l-2,2.5h-9.5v-9.9h11.4l-2,2.6H49v1.2h7.8l-1.8,2.2H49v1.3L57.4,84.7z"></path>			<path class="st0" d="M68.7,87.4c-0.2,0-0.4,0-0.6-0.1c-0.2-0.1-0.5-0.3-0.6-0.4l-6-5.4v5.8h-2.8V79c0-0.3,0-0.6,0.1-0.8    c0.1-0.2,0.2-0.4,0.4-0.6c0.1-0.1,0.3-0.3,0.5-0.3c0.2-0.1,0.4-0.1,0.6-0.1c0.2,0,0.4,0,0.6,0.1c0.2,0.1,0.5,0.3,0.7,0.4l6,5.4    v-5.8h2.8v8.2c0,0.3,0,0.6-0.2,0.8c-0.1,0.2-0.2,0.4-0.4,0.6c-0.2,0.1-0.3,0.3-0.5,0.3C69.1,87.3,68.9,87.4,68.7,87.4z"></path>			<path class="st0" d="M85,82.2c0,0.7-0.1,1.4-0.4,2c-0.3,0.6-0.7,1.2-1.2,1.6c-0.6,0.5-1.2,0.8-1.9,1.1c-0.8,0.3-1.6,0.4-2.4,0.4    h-6.6v-6.1h3.1v3.6h3.5c0.4,0,0.8,0,1.2-0.2c0.3-0.1,0.6-0.3,0.9-0.5c0.3-0.2,0.5-0.5,0.6-0.8c0.3-0.6,0.3-1.3,0-1.9    c-0.2-0.3-0.4-0.6-0.6-0.8c-0.3-0.2-0.6-0.4-0.9-0.5c-0.4-0.1-0.8-0.2-1.2-0.2h-6.6l1.9-2.6h4.7c0.8,0,1.6,0.1,2.4,0.3    c0.7,0.2,1.3,0.6,1.9,1c0.5,0.4,0.9,0.9,1.2,1.5C84.9,80.8,85,81.5,85,82.2z"></path>			<path class="st0" d="M90,87.2h-3v-9.9h3V87.2z"></path>			<path class="st0" d="M104.9,81l0.6,1c0.2,0.3,0.3,0.6,0.4,0.8l0.3,0.6l0.3,0.6c0.1-0.2,0.2-0.4,0.3-0.5l0.3-0.6    c0.1-0.2,0.3-0.5,0.4-0.8s0.3-0.6,0.6-1l1.6-2.8c0.2-0.3,0.4-0.6,0.7-0.8c0.3-0.2,0.6-0.3,1-0.3c0.4,0,0.7,0.1,1,0.3    c0.3,0.2,0.6,0.6,0.7,1l2.5,8.7h-3l-0.9-3.4c-0.2-0.6-0.3-1.1-0.4-1.5s-0.2-0.8-0.3-1.2c-0.2,0.3-0.4,0.7-0.6,1.1l-0.8,1.6    l-1.3,2.5c-0.1,0.2-0.2,0.4-0.4,0.6c-0.1,0.1-0.3,0.2-0.4,0.3c-0.1,0.1-0.3,0.1-0.4,0.2c-0.2,0-0.3,0-0.5,0c-0.2,0-0.3,0-0.5,0    c-0.2,0-0.3-0.1-0.4-0.2c-0.1-0.1-0.3-0.2-0.4-0.3c-0.2-0.2-0.3-0.4-0.4-0.6l-1.3-2.5c-0.2-0.3-0.3-0.6-0.5-0.9l-0.4-0.7    c-0.1-0.2-0.2-0.4-0.3-0.6L102,81c-0.1,0.4-0.2,0.8-0.3,1.2s-0.2,0.9-0.4,1.5l-0.9,3.4h-3l2.6-8.7c0.1-0.4,0.3-0.8,0.7-1    c0.3-0.2,0.6-0.3,1-0.3c0.4,0,0.7,0.1,1,0.3c0.3,0.2,0.5,0.5,0.7,0.8L104.9,81z"></path>		</g>		<g>			<path class="st0" d="M121.2,87.2l1.8-2.5h3.4c0.3,0,0.6,0,0.8,0c-0.1-0.2-0.3-0.4-0.5-0.7l-0.5-0.8l-1.8-2.6l-4.6,6.5h-3.6    l6.3-8.9c0.2-0.3,0.5-0.5,0.8-0.8c0.4-0.2,0.8-0.4,1.2-0.3c0.4,0,0.8,0.1,1.2,0.3c0.3,0.2,0.6,0.5,0.8,0.8l6.2,8.9L121.2,87.2z"></path>		</g>		<g>			<path class="st0" d="M145.1,84.7l-2,2.5h-5c-0.8,0-1.6-0.1-2.4-0.4c-0.7-0.2-1.3-0.6-1.9-1.1c-0.5-0.4-0.9-1-1.2-1.6    c-0.3-0.6-0.5-1.3-0.4-2c0-0.7,0.1-1.4,0.4-2c0.3-0.6,0.7-1.1,1.2-1.5c0.6-0.5,1.2-0.8,1.9-1c0.8-0.2,1.6-0.4,2.4-0.3h6.9l-2,2.6    h-5c-0.4,0-0.8,0.1-1.1,0.2c-0.3,0.1-0.6,0.3-0.9,0.5c-0.3,0.2-0.5,0.5-0.6,0.8c-0.2,0.3-0.2,0.7-0.2,1c0,0.7,0.3,1.3,0.8,1.7    c0.3,0.2,0.6,0.4,0.9,0.5c0.4,0.1,0.8,0.2,1.1,0.2L145.1,84.7z"></path>			<path class="st0" d="M158.4,87.2h-3v-3.8h-5.9v3.8h-3.1v-9.9h3.1v3.5h5.9v-3.5h3V87.2z"></path>			<path class="st0" d="M163.7,87.2h-3.1v-9.9h3.1V87.2z"></path>			<path class="st0" d="M175.9,87.4c-0.5,0-0.9-0.2-1.2-0.5l-6-5.4v5.8h-2.8V79c0-0.3,0-0.6,0.1-0.8c0.1-0.2,0.2-0.4,0.4-0.6    c0.1-0.1,0.3-0.3,0.5-0.3c0.4-0.1,0.8-0.1,1.2,0c0.2,0.1,0.5,0.3,0.7,0.4l6,5.4v-5.8h2.8v8.2c0,0.3,0,0.6-0.1,0.8    c-0.1,0.2-0.2,0.5-0.4,0.6c-0.1,0.1-0.3,0.3-0.5,0.3C176.3,87.4,176.1,87.4,175.9,87.4z"></path>			<path class="st0" d="M191.1,84.7l-2,2.5h-9.5v-9.9H191l-2,2.6h-6.4v1.2h7.8l-1.8,2.2h-6.1v1.3L191.1,84.7z"></path>		</g>		<g>			<path class="st0" d="M206.5,87.2h-4.1l-2.2-2.6h-4.7v2.6h-3.1v-5h8.6c0.4,0,0.8-0.1,1.2-0.3c0.3-0.2,0.5-0.5,0.5-0.8    c0-0.3-0.2-0.7-0.4-0.9c-0.4-0.2-0.8-0.3-1.2-0.3h-8.6l2-2.6h6.3c0.6,0,1.2,0.1,1.7,0.2c0.6,0.1,1.1,0.3,1.6,0.6    c0.5,0.3,0.9,0.6,1.2,1.1c0.3,0.5,0.5,1.1,0.5,1.7c0,0.4-0.1,0.7-0.2,1.1c-0.1,0.3-0.3,0.7-0.5,0.9c-0.2,0.3-0.5,0.5-0.8,0.7    c-0.3,0.2-0.7,0.3-1.1,0.4c0.2,0.1,0.4,0.3,0.6,0.5l0.8,0.8L206.5,87.2z"></path>		</g>		<g>			<path class="st0" d="M220.7,77.4l-5.8,6.6v3.3h-3.1V84l-6-6.6h3.9l2.3,2.7c0.1,0.1,0.2,0.2,0.3,0.3s0.3,0.3,0.4,0.4l0.4,0.4    l0.2,0.3l0.4-0.6l0.8-1l2.2-2.7L220.7,77.4z"></path>		</g>	</g></g></svg>