<svg xmlns="http://www.w3.org/2000/svg" xmlns:xlink="http://www.w3.org/1999/xlink" id="Laag_1" data-name="Laag 1" viewBox="0 0 244.5 87.38"><defs><style>      .cls-1 {        isolation: isolate;      }      .cls-2 {        fill: #fff;      }      .cls-3 {        fill: url(#linear-gradient);      }    </style><linearGradient id="linear-gradient" x1="1021.46" y1="7292.61" x2="1021.46" y2="7182.59" gradientTransform="matrix(0.5, 0, 0, -0.5, -383.55, 3663.6)" gradientUnits="userSpaceOnUse"><stop offset="0"></stop><stop offset="0.37" stop-color="#6a6a6a"></stop><stop offset="0.68" stop-color="#bababa"></stop><stop offset="0.89" stop-color="#ececec"></stop><stop offset="1" stop-color="#fff"></stop></linearGradient></defs><g><g><g class="cls-1"><path class="cls-2" d="M35.82,0,78.26,41.74,122.54,0h34.4L96.59,56.88A33.58,33.58,0,0,1,89,61.77,26.08,26.08,0,0,1,77.7,63.93a26.84,26.84,0,0,1-11.07-2,26.69,26.69,0,0,1-7.55-5L0,0Z"></path></g><g><path class="cls-3" d="M107.11,24.07l7.34,6.34c2.1,1.82,3.94,3.43,5.52,4.85s3,2.72,4.2,3.89l3.5,3.42c1-1.11,2.11-2.23,3.33-3.38s2.62-2.44,4.19-3.88,3.42-3.07,5.5-4.86L148,24.16,168.47,6.57a26.37,26.37,0,0,1,8.67-4.77A40.61,40.61,0,0,1,190.2,0a41.09,41.09,0,0,1,13.42,2.07q6,2.08,8.67,6.43l32.2,54.39H205.24l-12-21.55q-3-5.28-5.15-9.25a83,83,0,0,1-3.62-7.77q-3.24,3.24-7.24,7.17t-10.5,9.94L149.61,57a23,23,0,0,1-5.05,3.65,26.61,26.61,0,0,1-5.24,2.08,29.9,29.9,0,0,1-5.71,1q-3.06.24-6.67.23t-6.67-.23a29.9,29.9,0,0,1-5.71-1,26.37,26.37,0,0,1-5.24-2.08A23,23,0,0,1,104.26,57L87.11,41.35q-3.44-3.14-6.1-5.64t-4.86-4.5q-2.19-2-3.81-3.65L69.2,24.32q-1.53,3.7-3.62,7.73t-5,9.3l-12,21.56H9.92l33-54.4q2.65-4.35,8.77-6.43A41.94,41.94,0,0,1,65.19,0,40.92,40.92,0,0,1,78.05,1.76a24.82,24.82,0,0,1,8.67,4.81Z"></path><g class="cls-1"><path d="M107.11,24.06l7.34,6.33q3.14,2.73,5.52,4.86t4.19,3.88l3.53,3.43c1-1.11,2.13-2.24,3.33-3.38s2.61-2.43,4.2-3.89,3.43-3.06,5.52-4.85l7.34-6.29L168.47,6.57a26.1,26.1,0,0,1,8.67-4.76,46,46,0,0,1,26.49.28,15.73,15.73,0,0,1,8.67,6.42l32.2,54.4H205.25l-12-21.56q-3-5.26-5.14-9.25a80.89,80.89,0,0,1-3.62-7.77q-3.25,3.24-7.24,7.17t-10.49,10L149.6,57a22.86,22.86,0,0,1-5,3.65,26.11,26.11,0,0,1-5.24,2.08,29,29,0,0,1-5.71,1q-3.06.24-6.67.24t-6.67-.24a28.93,28.93,0,0,1-5.72-1,26.35,26.35,0,0,1-5.24-2.08,23.1,23.1,0,0,1-5-3.65L87.1,41.35q-3.43-3.14-6.1-5.64t-4.86-4.49q-2.19-2-3.81-3.65l-3.14-3.24c-1,2.47-2.23,5-3.62,7.73s-3,5.78-5,9.29l-12,21.56H9.92l33-54.4c1.78-2.89,4.7-5,8.77-6.42A41.57,41.57,0,0,1,65.19,0,40.88,40.88,0,0,1,78.05,1.76a24.76,24.76,0,0,1,8.67,4.81Z"></path></g></g><path class="cls-2" d="M122.54,0,78.47,41.54V63.91A25.3,25.3,0,0,0,89,61.76a33.08,33.08,0,0,0,7.64-4.88L157,0Z"></path></g><g class="cls-1"><g class="cls-1"><path d="M31.89,77.36l4.44,6.54L41,77.36h3.6l-6.31,8.92a3.58,3.58,0,0,1-.79.76,2,2,0,0,1-1.18.34,2,2,0,0,1-1.16-.31,3.29,3.29,0,0,1-.79-.79l-6.17-8.92Z"></path><path d="M57.38,84.68l-2,2.54H45.93V77.36H57.35l-2,2.57H49V81.1h7.81l-1.75,2.24H49v1.34Z"></path><path d="M68.72,87.38a2,2,0,0,1-.59-.09,1.93,1.93,0,0,1-.64-.44l-6-5.42v5.79H58.68V79a2.38,2.38,0,0,1,.14-.84,1.56,1.56,0,0,1,.37-.57,1.39,1.39,0,0,1,.53-.33,1.89,1.89,0,0,1,.63-.1,1.87,1.87,0,0,1,.56.09,2.08,2.08,0,0,1,.66.44l6,5.42V77.36H70.4v8.16a2.1,2.1,0,0,1-.15.84,1.73,1.73,0,0,1-.36.59,1.43,1.43,0,0,1-.54.33A2,2,0,0,1,68.72,87.38Z"></path><path d="M85,82.19a4.48,4.48,0,0,1-.45,2,4.69,4.69,0,0,1-1.24,1.59,5.93,5.93,0,0,1-1.88,1.06,7.27,7.27,0,0,1-2.37.38h-6.6V81.08h3.06v3.6h3.54a4,4,0,0,0,1.17-.16,3,3,0,0,0,.92-.48,2.32,2.32,0,0,0,.61-.75,2.2,2.2,0,0,0,0-1.92,2.39,2.39,0,0,0-.62-.76,3.19,3.19,0,0,0-.93-.5,3.6,3.6,0,0,0-1.15-.18h-6.6l1.94-2.57h4.66a7.93,7.93,0,0,1,2.39.35,5.77,5.77,0,0,1,1.87,1,4.68,4.68,0,0,1,1.24,1.53A4.43,4.43,0,0,1,85,82.19Z"></path><path d="M90,87.22h-3V77.36h3Z"></path><path d="M104.91,81l.56,1c.17.29.31.55.43.77l.32.62.28.55c.08-.18.16-.36.26-.54l.32-.62c.12-.23.26-.49.43-.77s.35-.62.56-1l1.58-2.79a2.26,2.26,0,0,1,.67-.76,1.65,1.65,0,0,1,1-.29,1.76,1.76,0,0,1,1,.33,1.86,1.86,0,0,1,.67,1l2.49,8.67h-3l-.92-3.43c-.16-.56-.29-1.05-.4-1.48s-.2-.83-.28-1.23c-.17.34-.36.72-.56,1.14l-.81,1.58-1.33,2.48a2.91,2.91,0,0,1-.39.58,1.94,1.94,0,0,1-.4.33,1.42,1.42,0,0,1-.45.16,4,4,0,0,1-.51,0,4.17,4.17,0,0,1-.52,0,1.46,1.46,0,0,1-.44-.16,1.71,1.71,0,0,1-.4-.33,2.54,2.54,0,0,1-.4-.58l-1.32-2.49c-.18-.34-.34-.64-.47-.9l-.38-.72c-.11-.21-.21-.4-.29-.58l-.25-.51c-.08.39-.17.8-.28,1.23s-.23.92-.38,1.48l-.93,3.43h-3l2.55-8.67a1.82,1.82,0,0,1,.68-1,1.76,1.76,0,0,1,1-.33,1.69,1.69,0,0,1,1,.28,2.2,2.2,0,0,1,.67.77Z"></path></g><g class="cls-1"><path d="M121.21,87.22l1.85-2.54h3.39q.48,0,.84,0c-.14-.17-.3-.4-.48-.67l-.53-.76-1.76-2.6-4.63,6.54h-3.61l6.32-8.92a3.53,3.53,0,0,1,.78-.76,2,2,0,0,1,1.19-.34,1.94,1.94,0,0,1,1.16.32,3.08,3.08,0,0,1,.79.78l6.16,8.92Z"></path></g><g class="cls-1"><path d="M145.11,84.68l-2,2.54h-5a7.27,7.27,0,0,1-2.37-.38,5.93,5.93,0,0,1-1.88-1.06,4.67,4.67,0,0,1-1.23-1.59,4.48,4.48,0,0,1-.45-2,4.28,4.28,0,0,1,.45-2,4.45,4.45,0,0,1,1.23-1.53,5.62,5.62,0,0,1,1.88-1,7.85,7.85,0,0,1,2.37-.35h6.92l-2,2.57h-5a3.6,3.6,0,0,0-1.15.17,2.77,2.77,0,0,0-.91.5,2.29,2.29,0,0,0-.6.75,2.14,2.14,0,0,0-.22,1,2.13,2.13,0,0,0,.81,1.71,3.21,3.21,0,0,0,.92.48,3.9,3.9,0,0,0,1.15.16Z"></path><path d="M158.43,87.22h-3v-3.8h-5.86v3.8h-3.07V77.36h3.07v3.49h5.86V77.36h3Z"></path><path d="M163.69,87.22h-3.05V77.36h3.05Z"></path><path d="M175.87,87.38a1.53,1.53,0,0,1-1.22-.53l-6-5.42v5.79h-2.77V79a2.18,2.18,0,0,1,.14-.84,1.45,1.45,0,0,1,.37-.57,1.39,1.39,0,0,1,.53-.33,1.91,1.91,0,0,1,1.19,0,2.08,2.08,0,0,1,.66.44l6,5.42V77.36h2.78v8.16a2.11,2.11,0,0,1-.14.84A1.61,1.61,0,0,1,177,87a1.39,1.39,0,0,1-.53.33A2,2,0,0,1,175.87,87.38Z"></path><path d="M191.09,84.68l-2,2.54h-9.49V77.36h11.42l-2,2.57h-6.38V81.1h7.81l-1.75,2.24h-6.06v1.34Z"></path></g><g class="cls-1"><path d="M206.49,87.22h-4.08l-2.2-2.61h-4.68v2.61h-3.05v-5h8.57a2.34,2.34,0,0,0,1.2-.29.93.93,0,0,0,.49-.81,1,1,0,0,0-.45-.87,2.26,2.26,0,0,0-1.24-.28h-8.57l2-2.57h6.33a9.63,9.63,0,0,1,1.74.16,5.12,5.12,0,0,1,1.64.55,3.37,3.37,0,0,1,1.21,1.07,3,3,0,0,1,.48,1.74A3.51,3.51,0,0,1,205.7,82a3,3,0,0,1-.51.93,2.89,2.89,0,0,1-.81.7,3.38,3.38,0,0,1-1.09.41,5.37,5.37,0,0,1,.56.48l.83.81Z"></path></g><g class="cls-1"><path d="M220.67,77.36,214.82,84v3.26h-3.07V84l-6-6.59h3.92L212,80.1c.07.09.18.21.31.35s.26.29.39.45l.39.44.25.31.42-.56.81-1,2.24-2.73Z"></path></g></g></g></svg>